<?xml version="1.0" encoding="utf-8"?>
<!-- Generator: Adobe Illustrator 28.1.0, SVG Export Plug-In . SVG Version: 6.00 Build 0)  -->
<svg version="1.1" id="Layer_1" xmlns="http://www.w3.org/2000/svg" xmlns:xlink="http://www.w3.org/1999/xlink" x="0px" y="0px"
	 viewBox="0 0 700 115.5" style="enable-background:new 0 0 700 115.5;" xml:space="preserve">
<style type="text/css">
	.st0{fill:#FFFFFF;}
</style>
<g>
	<g>
		<path d="M74.5,91.8H36.3l-6.1,18.1H4L41.1,7.5H70L107.1,110H80.7L74.5,91.8z M68.1,72.6L55.4,35.1L42.9,72.6H68.1z"/>
		<path d="M154.2,31.5c4.4-2.6,9.2-3.9,14.6-3.9V54H162c-6.2,0-10.9,1.3-14,4c-3.1,2.7-4.7,7.4-4.7,14.1v37.8h-25V28.5h25v13.6
			C146.2,37.6,149.9,34.1,154.2,31.5z"/>
		<path d="M226.2,88.8V110h-12.7c-9.1,0-16.1-2.2-21.2-6.6s-7.6-11.7-7.6-21.7V49.2h-9.9V28.5h9.9V8.6h25v19.9H226v20.7h-16.4v32.7
			c0,2.4,0.6,4.2,1.8,5.2s3.1,1.6,5.8,1.6H226.2z"/>
	</g>
	<g>
		<path d="M253.4,31.1l-14,78.8h-2.9l14-78.8C250.4,31.1,253.4,31.1,253.4,31.1z M253.1,10.1c-0.6-0.6-0.9-1.3-0.9-2.2
			c0-1.5,0.4-2.6,1.3-3.5c0.9-0.9,1.9-1.3,3.2-1.3c0.9,0,1.6,0.3,2.3,0.9c0.6,0.6,1,1.4,1,2.3c0,1.4-0.5,2.5-1.4,3.4
			c-0.9,0.9-2,1.3-3.1,1.3C254.5,11,253.8,10.7,253.1,10.1z"/>
	</g>
	<g>
		<path d="M462.5,1.9l-19.1,108h-2.9l19.1-108H462.5z"/>
		<path d="M480.1,49c4.3-6.1,9.6-10.8,16.1-14c6.4-3.3,13.4-4.9,20.9-4.9c9,0,16.3,2.3,21.8,7s8.6,10.7,9.5,18.1l4.2-24.1h2.8
			l-14,78.8h-2.8l4.2-24.1c-3.4,7.3-8.7,13.3-15.8,18c-7.1,4.7-15.2,7.1-24.2,7.1c-9.9,0-17.8-2.8-23.5-8.3s-8.6-13.1-8.6-22.8
			c0-3,0.3-6.1,0.9-9.3C473,62.3,475.8,55.1,480.1,49z M546.2,62.2c0-9-2.7-16.2-8-21.5c-5.3-5.3-12.5-8-21.6-8
			c-10.9,0-20.1,3.4-27.7,10.2s-12.4,16-14.5,27.7c-0.6,3.2-0.9,6.2-0.9,9.1c0,9.1,2.6,16.1,7.8,21.2s12.5,7.6,21.8,7.6
			c6.8,0,13.2-1.6,19.2-4.7c6-3.2,11-7.6,15-13.3c4-5.7,6.7-12.3,8.1-19.8C546,68.1,546.2,65.3,546.2,62.2z"/>
		<path d="M576,89.2c-0.5,2.9-0.7,5.2-0.7,7c0,4.1,1.1,6.9,3.3,8.5s5.8,2.3,10.9,2.3h8.3l-0.6,2.9h-8.6c-5.7,0-9.8-1-12.3-3.1
			c-2.6-2.1-3.9-5.5-3.9-10.3c0-1.8,0.2-4.2,0.7-7.3l9.8-55.2H570l0.6-2.9h12.8L587,11h2.9l-3.5,20.1h24.8l-0.6,2.9h-24.8L576,89.2z
			"/>
		<path d="M680.9,34c4.6,2.6,8.1,6,10.4,10.1c2.3,4.2,3.4,8.8,3.4,13.9c0,1.3-0.2,3.3-0.6,6l-0.6,2.9c-0.2,1.6-0.5,3.2-1,5h-71.1
			c-0.5,3.2-0.7,5.9-0.7,8c0,9.3,2.8,16.4,8.3,21.2s12.5,7.2,21,7.2c8.8,0,16.7-2.3,23.6-6.8c6.9-4.5,11.6-10.6,14.2-18.3h2.9
			c-2.8,8.3-7.9,15-15.2,20.1s-16,7.7-26,7.7c-9.6,0-17.3-2.8-23.1-8.2s-8.6-13.1-8.6-22.8c0-2.9,0.3-6,0.9-9.3
			c1.5-8.3,4.3-15.5,8.7-21.6s9.7-10.8,16-14c6.3-3.2,13.1-4.8,20.4-4.8C670.6,30.1,676.3,31.4,680.9,34z M691.9,59
			c0-8.7-2.7-15.2-8.2-19.6c-5.5-4.4-12.2-6.6-20.3-6.6c-6.2,0-12.2,1.3-18,4c-5.7,2.7-10.7,6.7-15,12.2c-4.2,5.5-7.1,12.2-8.5,20.3
			h68.6C691.5,65.4,691.9,62,691.9,59z"/>
	</g>
	<g>
		<path d="M329.6,92c-21.2,27-69.7,17.3-60.4-22.3c2.5-14.9,10.6-27.1,23.4-33.3c14.9-7.4,38.7-5.6,44.9,11.1
			c0.9-0.4,1.8-0.8,2.7-1.2c-6.6-18.4-33.4-20.4-49.5-11.9c-16.1,8-25.2,26.6-25.3,44.6c-1,34.3,39.8,36.5,57.1,23.2
			c5.3-1.6,10.5-14.2,15.4-8.7c-0.9-4.8-1.8-9.5-2.7-14.3C334.6,82.3,333.2,87.1,329.6,92z"/>
		<path d="M430.1,54.7c-19.8,21.6-29.8,55.6-65.4,53.9c-19.3-1.9-37.6-19.3-25.9-39.2c9.9-15.9,22.8-30.6,33.7-45.8
			c0.6,0.4,1.8,1.2,2.3,1.5c-10.4,18.6-60.1,58-22.5,77.1c37.4,18.4,56.3-27.2,75.1-48.8L430.1,54.7z"/>
		<path class="st0" d="M336.6,47.6c-8.3,0.1-8.1-12.9,0.2-12.6C344.8,35.2,344.7,47.8,336.6,47.6z"/>
		<path d="M337,47.6v-1c-6.9,0.1-6.9-10.7,0-10.6c6.9-0.1,6.9,10.7,0,10.6c0,0.5,0,1.5,0,2c9.5,0.1,9.5-14.8,0-14.6
			c-9.5-0.1-9.5,14.8,0,14.6V47.6z"/>
		<path class="st0" d="M369.5,109.8c-22,0.3-44.5-20.4-31-42.8c2.4-5.2,10.9-15,14.4-19.9c1-1.4,2.8,1.2,3.6,1.7
			c0.4,0.3,0.5,1,0.1,1.4c-3.5,4.9-11,13.3-13.6,18.9c-11.5,18.8,7.4,36,25.9,36.1c16.2,0.8,29.5-13.4,35.8-23.1
			c1-1.3,2.9,1.2,3.7,1.5c0.4,0.3,0.5,1,0.2,1.4C398.1,98.4,391,108.2,369.5,109.8z"/>
		<path d="M353.6,47.7c0.7,0.6,1.4,1.2,2.1,1.8c-7.6,9.9-21.2,24.9-16.3,38c4.9,14,23.8,21.7,38.5,17.6c17-5.4,20.9-14.3,27.6-22.4
			c0.8,0.6,1.5,1.2,2.3,1.7c-11.1,13.7-15.5,20.9-36,24.3c-13.4,1.2-30.8-7.3-35.2-20.2C330.9,74.7,345.2,58.4,353.6,47.7
			 M353.6,45.7c-1.4-0.9-10,12.3-10.9,12.8c-7.1,8.7-11.8,21.4-8,30.7c9,23.8,44.2,27.1,59.9,12.5c4.8-3.4,8.8-8.1,12.4-12.9
			c0.8-1.5,4.5-4.3,2-6c-1.1-0.7-2.2-2.1-3.5-2.2c-2.2,0.2-4,4.4-5.5,5.9c-21.8,34.4-79.7,12.6-51.7-23.9l9.1-11.9
			c1.1-1.3-0.1-2.8-1.2-3.6C355.5,46.7,354.5,45.5,353.6,45.7z"/>
		<path d="M372.9,26.2c2.9-2.3,7.2-2.4,10.2-0.1"/>
		<path d="M374.4,28.9c0.6-0.5,1.2-0.8,1.9-1.1c-0.2,0.1-0.5,0.2-0.7,0.3c0.7-0.3,1.4-0.5,2.1-0.6c-0.3,0-0.5,0.1-0.8,0.1
			c0.7-0.1,1.5-0.1,2.2,0c-0.3,0-0.5-0.1-0.8-0.1c0.7,0.1,1.5,0.3,2.1,0.6c-0.2-0.1-0.5-0.2-0.7-0.3c3.6,3.5,9.1-0.7,4.8-4.2
			c-4.1-3.1-12-3-14.6,1.9C369.1,27.9,372.2,30.3,374.4,28.9z"/>
		<path d="M422.3,46.4c3.4,1.5,5.4,5.4,4.7,9"/>
		<path d="M420.8,49c0.5,0.3,1.1,0.6,1.5,1c-0.2-0.2-0.4-0.3-0.6-0.5c0.6,0.5,1.1,1,1.6,1.6c-0.2-0.2-0.3-0.4-0.5-0.6
			c0.4,0.5,0.7,1.1,1,1.8c-0.1-0.2-0.2-0.5-0.3-0.7c0.3,0.7,0.5,1.5,0.6,2.2c0-0.3-0.1-0.5-0.1-0.8c0.1,0.7,0.1,1.5,0,2.2
			c0-0.3,0.1-0.5,0.1-0.8c-0.5,6.9,8,4.8,5.8-2.5C427.4,40,415,42.6,420.8,49z"/>
	</g>
</g>
</svg>
