<?xml version="1.0" encoding="utf-8"?>
<!-- Generator: Adobe Illustrator 28.1.0, SVG Export Plug-In . SVG Version: 6.00 Build 0)  -->
<svg version="1.1" id="Layer_1" xmlns="http://www.w3.org/2000/svg" xmlns:xlink="http://www.w3.org/1999/xlink" x="0px" y="0px"
	 viewBox="0 0 700 115.47" style="enable-background:new 0 0 700 115.47;" xml:space="preserve">
<style type="text/css">
	.st0{fill:#FFFFFF;}
</style>
<g>
	<g>
		<path d="M74.54,91.85H36.3l-6.13,18.1H4.04L41.11,7.48h28.9l37.08,102.47H80.67L74.54,91.85z M68.12,72.59l-12.7-37.52
			L42.86,72.59H68.12z"/>
		<path d="M154.24,31.49c4.38-2.58,9.24-3.87,14.6-3.87v26.42h-6.86c-6.23,0-10.9,1.34-14.01,4.01c-3.12,2.68-4.67,7.37-4.67,14.09
			v37.81h-24.96V28.5h24.96v13.58C146.21,37.6,149.86,34.07,154.24,31.49z"/>
		<path d="M226.2,88.79v21.17h-12.7c-9.05,0-16.11-2.21-21.17-6.64c-5.06-4.43-7.59-11.65-7.59-21.68V49.23h-9.93V28.5h9.93V8.65
			h24.96V28.5h16.35v20.73h-16.35v32.7c0,2.43,0.58,4.18,1.75,5.25c1.17,1.07,3.11,1.61,5.84,1.61H226.2z"/>
	</g>
	<g>
		<path d="M253.35,31.13l-14.01,78.82h-2.92l14.01-78.82H253.35z M253.14,10.11c-0.63-0.58-0.95-1.31-0.95-2.19
			c0-1.46,0.44-2.63,1.31-3.5c0.88-0.88,1.95-1.31,3.21-1.31c0.88,0,1.63,0.29,2.26,0.88c0.63,0.58,0.95,1.36,0.95,2.34
			c0,1.36-0.46,2.48-1.39,3.36c-0.93,0.88-1.97,1.31-3.14,1.31C254.52,10.98,253.77,10.69,253.14,10.11z"/>
	</g>
	<g>
		<path d="M462.46,1.93l-19.12,108.02h-2.92L459.54,1.93H462.46z"/>
		<path d="M480.12,49.01c4.28-6.08,9.63-10.75,16.06-14.01c6.42-3.26,13.38-4.89,20.87-4.89c9.05,0,16.3,2.34,21.75,7.01
			c5.45,4.67,8.61,10.71,9.49,18.1l4.23-24.09h2.77l-14.01,78.82h-2.77l4.23-24.08c-3.41,7.3-8.66,13.31-15.76,18.03
			c-7.1,4.72-15.18,7.08-24.23,7.08c-9.93,0-17.76-2.77-23.5-8.32c-5.74-5.55-8.61-13.14-8.61-22.77c0-3.01,0.29-6.13,0.88-9.34
			C472.97,62.27,475.83,55.09,480.12,49.01z M546.24,62.22c0-9.05-2.68-16.23-8.03-21.53c-5.35-5.3-12.55-7.96-21.6-7.96
			c-10.9,0-20.14,3.38-27.73,10.15c-7.59,6.77-12.41,15.98-14.45,27.66c-0.58,3.21-0.88,6.23-0.88,9.05c0,9.05,2.6,16.11,7.81,21.17
			c5.21,5.06,12.48,7.59,21.82,7.59c6.81,0,13.21-1.58,19.2-4.74c5.98-3.16,11-7.59,15.04-13.28c4.04-5.69,6.74-12.29,8.1-19.78
			C546,68.11,546.24,65.34,546.24,62.22z"/>
		<path d="M576.02,89.23c-0.49,2.92-0.73,5.25-0.73,7.01c0,4.09,1.09,6.91,3.28,8.47c2.19,1.56,5.81,2.33,10.88,2.33h8.32
			l-0.58,2.92h-8.61c-5.65,0-9.76-1.04-12.33-3.14c-2.58-2.09-3.87-5.52-3.87-10.29c0-1.75,0.24-4.18,0.73-7.3l9.78-55.18h-12.85
			l0.58-2.92h12.85l3.5-20.14h2.92l-3.5,20.14h24.81l-0.58,2.92H585.8L576.02,89.23z"/>
		<path d="M680.9,33.98c4.62,2.58,8.08,5.96,10.36,10.15c2.29,4.19,3.43,8.81,3.43,13.87c0,1.27-0.2,3.26-0.58,5.98l-0.58,2.92
			c-0.2,1.56-0.54,3.21-1.02,4.96h-71.09c-0.49,3.21-0.73,5.89-0.73,8.03c0,9.34,2.77,16.42,8.32,21.24
			c5.55,4.82,12.55,7.23,21.02,7.23c8.85,0,16.71-2.26,23.57-6.79c6.86-4.52,11.61-10.63,14.23-18.32h2.92
			c-2.82,8.27-7.88,14.96-15.18,20.07c-7.3,5.11-15.96,7.66-25.98,7.66c-9.63,0-17.32-2.75-23.06-8.25
			c-5.74-5.5-8.61-13.11-8.61-22.84c0-2.92,0.29-6.03,0.88-9.34c1.46-8.27,4.35-15.47,8.68-21.6c4.33-6.13,9.66-10.8,15.98-14.01
			c6.32-3.21,13.14-4.82,20.44-4.82C670.61,30.11,676.28,31.4,680.9,33.98z M691.92,59.01c0-8.66-2.73-15.2-8.17-19.63
			c-5.45-4.43-12.21-6.64-20.29-6.64c-6.23,0-12.21,1.34-17.96,4.01c-5.74,2.68-10.73,6.74-14.96,12.19
			c-4.23,5.45-7.08,12.21-8.54,20.29h68.61C691.48,65.43,691.92,62.03,691.92,59.01z"/>
	</g>
	<g>
		<path d="M329.61,91.99c-21.21,26.96-69.73,17.31-60.43-22.34c2.46-14.94,10.58-27.09,23.36-33.34
			c14.93-7.4,38.66-5.58,44.94,11.12c0.91-0.4,1.81-0.8,2.72-1.17c-6.62-18.42-33.35-20.36-49.47-11.9
			c-16.1,7.95-25.24,26.58-25.32,44.56c-1.03,34.27,39.84,36.52,57.14,23.22c5.29-1.62,10.53-14.16,15.39-8.68
			c-0.91-4.76-1.81-9.52-2.72-14.27C334.6,82.27,333.16,87.13,329.61,91.99z"/>
		<path d="M430.11,54.74c-19.84,21.62-29.81,55.56-65.38,53.86c-19.34-1.95-37.6-19.33-25.89-39.25
			c9.94-15.89,22.76-30.56,33.74-45.85c0.57,0.38,1.75,1.17,2.33,1.55c-10.44,18.59-60.12,58.03-22.54,77.13
			c37.44,18.4,56.34-27.18,75.15-48.77L430.11,54.74z"/>
		<path class="st0" d="M336.61,47.63c-8.28,0.11-8.11-12.94,0.2-12.59C344.83,35.15,344.67,47.76,336.61,47.63z"/>
		<path d="M337,47.63v-1.01c-6.85,0.09-6.85-10.66,0-10.56c6.85-0.09,6.85,10.66,0,10.56c0,0.5,0,1.52,0,2.03
			c9.48,0.14,9.48-14.76,0-14.62c-9.48-0.14-9.48,14.76,0,14.62V47.63z"/>
		<path class="st0" d="M369.46,109.8c-22.02,0.26-44.48-20.41-30.99-42.84c2.39-5.19,10.86-15.02,14.35-19.88
			c1.01-1.38,2.8,1.23,3.59,1.69c0.41,0.35,0.47,0.96,0.14,1.39C353.1,55.1,345.6,63.5,343,69.06
			c-11.54,18.85,7.42,36.03,25.94,36.11c16.19,0.81,29.46-13.43,35.8-23.1c0.96-1.33,2.89,1.15,3.71,1.54
			c0.44,0.32,0.54,1,0.19,1.43C398.09,98.41,390.97,108.16,369.46,109.8z"/>
		<path d="M353.63,47.7c0.71,0.61,1.41,1.23,2.12,1.84c-7.64,9.89-21.17,24.9-16.29,37.96c4.93,13.97,23.8,21.68,38.51,17.57
			c17-5.42,20.86-14.3,27.57-22.37c0.76,0.58,1.53,1.16,2.29,1.74c-11.08,13.69-15.47,20.9-36,24.27
			c-13.4,1.19-30.84-7.31-35.16-20.17C330.92,74.74,345.17,58.43,353.63,47.7 M353.64,45.67c-1.38-0.91-10,12.27-10.88,12.85
			c-7.06,8.66-11.78,21.43-7.99,30.71c9,23.85,44.24,27.08,59.9,12.47c4.76-3.42,8.83-8.07,12.35-12.86
			c0.84-1.48,4.47-4.31,2.05-6.03c-1.08-0.65-2.2-2.11-3.52-2.15c-2.19,0.21-4.03,4.45-5.55,5.92
			c-21.77,34.38-79.71,12.56-51.72-23.94c0,0,9.09-11.86,9.09-11.86c1.09-1.34-0.08-2.82-1.24-3.61
			C355.51,46.71,354.55,45.53,353.64,45.67z"/>
		<path d="M372.88,26.23c2.88-2.31,7.24-2.35,10.17-0.1"/>
		<path d="M374.41,28.86c0.59-0.45,1.23-0.82,1.91-1.12c-0.24,0.1-0.48,0.2-0.73,0.31c0.69-0.28,1.4-0.47,2.13-0.58
			c-0.27,0.04-0.54,0.07-0.81,0.11c0.74-0.09,1.47-0.09,2.21,0c-0.27-0.04-0.54-0.07-0.81-0.11c0.74,0.11,1.45,0.3,2.13,0.58
			c-0.24-0.1-0.48-0.2-0.73-0.31c3.57,3.49,9.09-0.67,4.84-4.24c-4.14-3.08-11.96-2.96-14.63,1.92
			C369.15,27.92,372.21,30.31,374.41,28.86z"/>
		<path d="M422.34,46.36c3.36,1.52,5.38,5.39,4.7,9.02"/>
		<path d="M420.81,48.99c0.55,0.26,1.07,0.58,1.55,0.95c-0.21-0.16-0.41-0.32-0.62-0.48c0.59,0.46,1.12,0.99,1.57,1.59
			c-0.16-0.21-0.32-0.41-0.48-0.62c0.41,0.54,0.74,1.12,1.02,1.75c-0.1-0.24-0.2-0.48-0.31-0.73c0.3,0.73,0.5,1.47,0.61,2.25
			c-0.04-0.27-0.07-0.54-0.11-0.81c0.09,0.73,0.08,1.45-0.01,2.18c0.04-0.27,0.07-0.54,0.11-0.81c-0.52,6.94,7.95,4.77,5.83-2.49
			C427.37,39.98,415.02,42.6,420.81,48.99z"/>
	</g>
</g>
</svg>
