{
  "accessors": [
    {
      "bufferView": 2,
      "componentType": 5126,
      "count": 32428,
      "max": [
        0.28696209192276,
        0.1406816691160202,
        1.699658751487732
      ],
      "min": [
        -0.28695204854011536,
        -0.194596067070961,
        -0.004762630444020033
      ],
      "type": "VEC3"
    },
    {
      "bufferView": 2,
      "byteOffset": 389136,
      "componentType": 5126,
      "count": 32428,
      "max": [
        0.9999154806137085,
        0.9999920725822449,
        0.9999780058860779
      ],
      "min": [
        -0.999988317489624,
        -0.9999830722808838,
        -0.9998999834060669
      ],
      "type": "VEC3"
    },
    {
      "bufferView": 1,
      "componentType": 5126,
      "count": 32428,
      "max": [
        1.0,
        1.0
      ],
      "min": [
        0.0,
        0.0
      ],
      "type": "VEC2"
    },
    {
      "bufferView": 0,
      "componentType": 5125,
      "count": 191427,
      "type": "SCALAR"
    }
  ],
  "asset": {
    "extras": {
      "author": "Womanda (https://sketchfab.com/Womanda)",
      "license": "CC-BY-4.0 (http://creativecommons.org/licenses/by/4.0/)",
      "source": "https://sketchfab.com/3d-models/female-body-decimated-71bc2f69a1214914ae9353a4c13b5f52",
      "title": "Female Body (Decimated)"
    },
    "generator": "Sketchfab-14.90.0",
    "version": "2.0"
  },
  "bufferViews": [
    {
      "buffer": 0,
      "byteLength": 765708,
      "name": "floatBufferViews",
      "target": 34963
    },
    {
      "buffer": 0,
      "byteLength": 259424,
      "byteOffset": 765708,
      "byteStride": 8,
      "name": "floatBufferViews",
      "target": 34962
    },
    {
      "buffer": 0,
      "byteLength": 778272,
      "byteOffset": 1025132,
      "byteStride": 12,
      "name": "floatBufferViews",
      "target": 34962
    }
  ],
  "buffers": [
    {
      "byteLength": 1803404,
      "uri": "scene.bin"
    }
  ],
  "materials": [
    {
      "doubleSided": true,
      "name": "Clay",
      "pbrMetallicRoughness": {
        "baseColorFactor": [
          0.226582,
          0.226582,
          0.226582,
          1.0
        ],
        "metallicFactor": 0.0,
        "roughnessFactor": 0.9493347245522142
      }
    }
  ],
  "meshes": [
    {
      "name": "Female Body_Clay_0",
      "primitives": [
        {
          "attributes": {
            "NORMAL": 1,
            "POSITION": 0,
            "TEXCOORD_0": 2
          },
          "indices": 3,
          "material": 0,
          "mode": 4
        }
      ]
    }
  ],
  "nodes": [
    {
      "children": [
        1
      ],
      "matrix": [
        1.0,
        0.0,
        0.0,
        0.0,
        0.0,
        2.220446049250313e-16,
        -1.0,
        0.0,
        0.0,
        1.0,
        2.220446049250313e-16,
        0.0,
        0.0,
        0.0,
        0.0,
        1.0
      ],
      "name": "Sketchfab_model"
    },
    {
      "children": [
        2
      ],
      "matrix": [
        0.009999999776482582,
        0.0,
        0.0,
        0.0,
        0.0,
        0.0,
        0.009999999776482582,
        0.0,
        0.0,
        -0.009999999776482582,
        0.0,
        0.0,
        0.0,
        0.0,
        0.0,
        1.0
      ],
      "name": "c77271ac280f4628a968080c9f125b05.fbx"
    },
    {
      "children": [
        3
      ],
      "name": "RootNode"
    },
    {
      "children": [
        4
      ],
      "matrix": [
        100.0,
        0.0,
        0.0,
        0.0,
        -0.0,
        -1.629206793918314e-05,
        -99.99999999999868,
        0.0,
        0.0,
        99.99999999999868,
        -1.629206793918314e-05,
        0.0,
        -0.007855063304305077,
        -0.04195299744606018,
        -0.06554245948791504,
        1.0
      ],
      "name": "Female Body"
    },
    {
      "mesh": 0,
      "name": "Female Body_Clay_0"
    }
  ],
  "scene": 0,
  "scenes": [
    {
      "name": "Sketchfab_Scene",
      "nodes": [
        0
      ]
    }
  ]
}
